#!OML:ASF H:\Terrain\Patient Classification 1\Walking\liu\liu.ASF
:FULLY-SPECIFIED
:DEGREES
211
root 8.330320 16.505699 -7.870840 8.021440 0.099215 -5.769980
lowerback -7.851668 2.619595 3.554540
upperback -0.970080 3.076931 4.139058
thorax 3.359796 1.553046 2.585660
lowerneck -17.610340 -7.129133 -15.999940
upperneck 16.325100 -9.044806 16.495050
head 9.364883 -3.709684 7.142586
rclavicle -0.000000 -0.000000
rhumerus -40.592644 13.550020 -90.739555
rradius 58.451363
rwrist -29.927702
rhand -35.817978 -31.610371
rfingers 7.837522
rthumb -6.370254 -64.501358
lclavicle -0.000000 -0.000000
lhumerus -55.861744 -12.123650 106.946182
lradius 29.462730
lwrist 10.859057
lhand -13.928860 -27.367561
lfingers 7.837522
lthumb 14.760241 5.135009
rfemur 11.222970 6.081625 34.554192
rtibia 0.000000
rfoot -13.599080 6.028627
rtoes -8.738158
lfemur -48.360844 -3.323331 -11.490380
ltibia 22.744040
lfoot -18.759840 17.050550
ltoes -16.529810
212
root 8.346940 16.486000 -7.723630 8.180980 -0.215262 -5.945030
lowerback -8.010420 2.665806 3.716075
upperback -1.049279 3.119721 4.131853
thorax 3.373887 1.575706 2.497616
lowerneck -17.378681 -7.068050 -15.977941
upperneck 16.262070 -8.989827 16.499010
head 9.292150 -3.692128 7.148955
rclavicle -0.000000 0.000000
rhumerus -40.822651 13.942830 -91.219597
rradius 58.478092
rwrist -29.964111
rhand -35.700279 -31.769651
rfingers 7.837522
rthumb -6.256624 -64.663719
lclavicle -0.000000 0.000000
lhumerus -55.992859 -10.919217 106.013382
lradius 29.364281
lwrist 8.835629
lhand -13.895201 -27.193651
lfingers 7.837522
lthumb 14.792690 5.306873
rfemur 11.623370 6.254666 34.683659
rtibia 0.000000
rfoot -13.939750 6.191757
rtoes -8.616245
lfemur -48.844398 -3.569632 -10.782398
ltibia 22.392151
lfoot -19.204350 17.143280
ltoes -17.374611
213
root 8.367740 16.468201 -7.573060 8.341820 -0.482203 -6.249640
lowerback -8.108749 2.723215 3.989205
upperback -1.149412 3.170332 4.208369
thorax 3.333803 1.602755 2.431517
lowerneck -17.441051 -7.038284 -15.911830
upperneck 16.459190 -8.952954 16.376360
head 9.353608 -3.678213 7.103261
rclavicle 0.000000 0.000000
rhumerus -40.911201 14.042710 -91.614609
rradius 58.341141
rwrist -29.692850
rhand -35.596443 -32.659111
rfingers 7.837522
rthumb -6.156393 -65.555817
lclavicle 0.000000 0.000000
lhumerus -56.078659 -10.424171 105.642570
lradius 29.132730
lwrist 8.101731
lhand -16.342920 -32.567589
lfingers 7.837522
lthumb 12.432750 0.075448
rfemur 12.066780 6.401450 34.929070
rtibia 0.000000
rfoot -13.928420 6.454174
rtoes -8.765680
lfemur -49.216312 -3.166757 -10.439672
ltibia 22.094381
lfoot -19.288059 16.581730
ltoes -16.721100
214
root 8.387540 16.452299 -7.427210 8.501790 -0.699848 -6.352830
lowerback -8.219651 2.774541 4.043743
upperback -1.198318 3.228522 4.235044
thorax 3.345672 1.631894 2.438766
lowerneck -17.519369 -7.003623 -15.907431
upperneck 16.530910 -8.891971 16.323120
head 9.378711 -3.650504 7.093119
rclavicle 0.000000 0.000000
rhumerus -41.099083 14.105631 -91.912704
rradius 58.381290
rwrist -29.398712
rhand -35.523289 -33.535480
rfingers 7.837522
rthumb -6.085706 -66.434059
lclavicle 0.000000 0.000000
lhumerus -56.220451 -10.565170 105.766983
lradius 28.923950
lwrist 7.949524
lhand -21.508520 -46.701710
lfingers 7.837522
lthumb 7.448243 -13.842840
rfemur 12.487640 6.467857 34.938641
rtibia 0.000000
rfoot -13.672450 6.697152
rtoes -9.275123
lfemur -49.653450 -3.036176 -10.300553
ltibia 22.088879
lfoot -19.098310 16.731661
ltoes -13.988151
215
root 8.398930 16.436501 -7.294990 8.617950 -0.999229 -6.435530
lowerback -8.141992 2.867348 4.020401
upperback -1.261854 3.362876 4.218159
thorax 3.234781 1.697806 2.441395
lowerneck -17.164949 -6.987728 -15.772681
upperneck 16.287590 -8.905523 16.234350
head 9.225865 -3.672449 7.033103
rclavicle -0.000000 -0.000000
rhumerus -41.601784 14.264360 -92.202553
rradius 58.757820
rwrist -29.447771
rhand -35.420994 -33.722481
rfingers 7.837522
rthumb -5.986981 -66.623589
lclavicle -0.000000 -0.000000
lhumerus -56.302513 -10.589425 105.698013
lradius 28.597471
lwrist 7.327475
lhand -21.883511 -48.431351
lfingers 7.837522
lthumb 7.086288 -15.561150
rfemur 12.893210 6.602036 34.969662
rtibia 0.000000
rfoot -13.631640 6.871568
rtoes -9.986856
lfemur -50.053963 -2.890558 -10.114555
ltibia 22.208561
lfoot -18.772270 17.467890
ltoes -13.491501
216
root 8.424550 16.425800 -7.121940 8.632780 -1.388750 -6.492920
lowerback -8.487446 3.012592 4.091890
upperback -1.122836 3.520209 4.201989
thorax 3.575088 1.778557 2.425467
lowerneck -16.872240 -6.980941 -15.820860
upperneck 15.887960 -8.904434 16.357880
head 9.049238 -3.678059 7.078775
rclavicle 0.000000 0.000000
rhumerus -41.970940 14.420341 -92.396370
rradius 59.107071
rwrist -29.530710
rhand -35.118710 -32.706192
rfingers 7.837522
rthumb -5.695063 -65.614670
lclavicle 0.000000 0.000000
lhumerus -56.126400 -10.726805 105.758957
lradius 28.081242
lwrist 6.955355
lhand -20.891750 -45.921371
lfingers 7.837522
lthumb 8.043662 -13.082410
rfemur 13.639891 6.818064 34.877918
rtibia -0.000000
rfoot -13.919400 7.059679
rtoes -10.997096
lfemur -50.016232 -2.517856 -10.256489
ltibia 22.341110
lfoot -18.655670 17.919771
ltoes -19.300932
217
root 8.447320 16.405300 -6.957800 8.667180 -1.570040 -6.567320
lowerback -8.839699 3.049794 4.178691
upperback -0.971112 3.530538 4.192727
thorax 3.934766 1.786631 2.394788
lowerneck -16.692390 -6.892677 -16.114010
upperneck 15.525950 -8.779651 16.786110
head 8.911264 -3.608517 7.293264
rclavicle 0.000000 0.000000
rhumerus -42.129452 14.648150 -92.705032
rradius 59.201233
rwrist -29.547651
rhand -34.692242 -31.364851
rfingers 7.837522
rthumb -5.283278 -64.283012
lclavicle 0.000000 0.000000
lhumerus -55.902660 -10.666007 105.582947
lradius 27.706360
lwrist 6.326606
lhand -18.528400 -40.675800
lfingers 7.837522
lthumb 10.324425 -7.927722
rfemur 14.302860 6.818361 34.845798
rtibia -0.000000
rfoot -14.085060 7.220620
rtoes -12.361580
lfemur -50.050991 -1.942424 -10.589327
ltibia 22.473221
lfoot -18.152752 17.573820
ltoes -23.991550
218
root 8.468020 16.380199 -6.799390 8.763900 -1.774850 -6.668120
lowerback -8.939359 3.019830 4.193530
upperback -1.046753 3.484745 4.235781
thorax 3.910401 1.763245 2.428800
lowerneck -16.684031 -6.799650 -16.187160
upperneck 15.735611 -8.656912 16.787321
head 8.960997 -3.553770 7.329201
rclavicle -0.000000 -0.000000
rhumerus -42.386631 15.019180 -93.128311
rradius 58.940529
rwrist -29.393431
rhand -34.721722 -31.670759
rfingers 7.837522
rthumb -5.311834 -64.588257
lclavicle -0.000000 -0.000000
lhumerus -56.160393 -10.335105 105.455788
lradius 27.562040
lwrist 5.797660
lhand -15.608561 -34.478951
lfingers 7.837522
lthumb 13.140930 -1.875951
rfemur 14.837350 6.863670 34.821819
rtibia 0.000000
rfoot -13.906751 7.489240
rtoes -11.559020
lfemur -50.137230 -1.200221 -10.906885
ltibia 22.724020
lfoot -17.692070 16.739140
ltoes -20.877670
219
root 8.488750 16.351000 -6.637640 8.803750 -2.072120 -6.793150
lowerback -8.843186 2.967052 4.123361
upperback -1.158795 3.429910 4.322285
thorax 3.732025 1.733468 2.541814
lowerneck -16.884010 -6.712486 -15.806451
upperneck 16.192110 -8.539619 16.235670
head 9.085395 -3.513774 7.091425
rclavicle 0.000000 0.000000
rhumerus -42.557571 15.370630 -93.584259
rradius 58.520000
rwrist -29.099951
rhand -35.399319 -33.584763
rfingers 7.837522
rthumb -5.966081 -66.486420
lclavicle 0.000000 0.000000
lhumerus -56.464870 -10.078376 105.445343
lradius 27.384281
lwrist 5.460433
lhand -13.176241 -29.289042
lfingers 7.837522
lthumb 15.485580 3.164491
rfemur 15.453570 6.996913 34.833813
rtibia 0.000000
rfoot -13.700610 7.691585
rtoes -9.787635
lfemur -50.147678 -0.346473 -11.208891
ltibia 23.008699
lfoot -17.062431 16.047680
ltoes -14.671031
220
root 8.511160 16.322201 -6.475190 8.822190 -2.452250 -6.954490
lowerback -8.828931 3.026584 4.192419
upperback -1.101606 3.500013 4.337003
thorax 3.785771 1.769361 2.527954
lowerneck -17.288040 -6.707976 -15.350280
upperneck 16.428610 -8.536694 15.839121
head 9.198432 -3.503599 6.873053
rclavicle -0.000000 -0.000000
rhumerus -42.705631 15.463799 -93.917450
rradius 58.347523
rwrist -28.955191
rhand -35.922813 -34.897171
rfingers 7.837522
rthumb -6.471509 -67.785301
lclavicle -0.000000 -0.000000
lhumerus -56.350910 -9.842107 105.040100
lradius 27.224340
lwrist 4.673031
lhand -11.954910 -27.037231
lfingers 7.837522
lthumb 16.662251 5.330930
rfemur 16.138430 7.218002 34.888371
rtibia -0.000000
rfoot -13.899710 7.849380
rtoes -10.167817
lfemur -50.167812 0.669480 -11.564631
ltibia 23.446390
lfoot -16.325871 15.440810
ltoes -11.500720
221
root 8.532110 16.283300 -6.319070 9.052360 -2.659790 -7.203030
lowerback -8.956421 3.128026 4.394104
upperback -1.167188 3.610244 4.371048
thorax 3.796925 1.825956 2.468422
lowerneck -17.296289 -6.735432 -15.511650
upperneck 16.326090 -8.587898 16.157131
head 9.196088 -3.509352 7.005306
rclavicle 0.000000 0.000000
rhumerus -43.137821 15.288791 -94.023712
rradius 58.333221
rwrist -28.738380
rhand -35.814350 -34.751091
rfingers 7.837522
rthumb -6.366756 -67.642189
lclavicle 0.000000 0.000000
lhumerus -55.745255 -8.202447 102.905006
lradius 26.598991
lwrist -1.322871
lhand -10.248074 -28.818350
lfingers 7.837522
lthumb 18.305981 3.418899
rfemur 16.585140 7.316672 35.040390
rtibia -0.000000
rfoot -14.140281 7.989091
rtoes -11.406561
lfemur -50.591312 1.532960 -11.752621
ltibia 24.214081
lfoot -16.424210 14.707991
ltoes -9.991817
